<svg xmlns="http://www.w3.org/2000/svg" width="100.945" height="109.51" viewBox="0 0 100.945 109.51">
  <g id="primary-logo" transform="translate(761.999 -482)">
    <path id="Union_1" data-name="Union 1" d="M1.082,108.335,6.791,75.775A50.4,50.4,0,1,1,32.086,97.491L2.441,109.436a1,1,0,0,1-1.359-1.1Z" transform="translate(-761.999 482)" fill="#004dfb"/>
    <path id="Icon_awesome-bolt" data-name="Icon awesome-bolt" d="M32.049,17.324H19.555L24.167,3.27A2.609,2.609,0,0,0,21.655,0H6.064A2.6,2.6,0,0,0,3.487,2.252L.022,28.238A2.6,2.6,0,0,0,2.6,31.183H15.451L10.46,52.242a2.6,2.6,0,0,0,4.775,1.895L34.291,21.222A2.594,2.594,0,0,0,32.049,17.324Z" transform="translate(-728.85 508.65)" fill="#fff"/>
  </g>
</svg>
