<svg xmlns="http://www.w3.org/2000/svg" width="50.271" height="54.236" viewBox="0 0 50.271 54.236">
  <g id="secondary-logo" transform="translate(761.999 -482)">
    <path id="Union_1" data-name="Union 1" d="M.695,53.062,3.382,37.737a25.1,25.1,0,1,1,12.6,10.815L2.054,54.162a1,1,0,0,1-1.359-1.1Z" transform="translate(-761.999 482)" fill="#d6e1ff"/>
    <path id="Icon_awesome-bolt" data-name="Icon awesome-bolt" d="M15.961,8.627H9.738l2.3-7A1.3,1.3,0,0,0,10.784,0H3.019A1.3,1.3,0,0,0,1.736,1.122L.011,14.063a1.3,1.3,0,0,0,1.283,1.467h6.4L5.209,26.017a1.293,1.293,0,0,0,2.378.944l9.49-16.392A1.292,1.292,0,0,0,15.961,8.627Z" transform="translate(-745.49 495.272)" fill="#004dfb"/>
  </g>
</svg>
